<mxfile host="app.diagrams.net" modified="2021-07-16T13:20:07.986Z" agent="5.0 (Windows NT 10.0; Win64; x64) AppleWebKit/537.36 (KHTML, like Gecko) Chrome/91.0.4472.124 Safari/537.36" etag="jT2UjYLw-mKbnCKQjtk3" version="14.8.6" type="github">
  <diagram id="FJayDazZqhjKccLs1laB" name="Page-1">
    <mxGraphModel dx="1422" dy="794" grid="1" gridSize="10" guides="1" tooltips="1" connect="1" arrows="1" fold="1" page="1" pageScale="1" pageWidth="827" pageHeight="1169" math="0" shadow="0">
      <root>
        <mxCell id="0" />
        <mxCell id="1" parent="0" />
        <mxCell id="vDzjL6M5BgdxltO5o6aF-1" value="SpecMacroBranchMatric" style="shape=table;startSize=30;container=1;collapsible=1;childLayout=tableLayout;fixedRows=1;rowLines=0;fontStyle=1;align=center;resizeLast=1;" vertex="1" parent="1">
          <mxGeometry x="310" y="30" width="180" height="130" as="geometry" />
        </mxCell>
        <mxCell id="vDzjL6M5BgdxltO5o6aF-2" value="" style="shape=partialRectangle;collapsible=0;dropTarget=0;pointerEvents=0;fillColor=none;top=0;left=0;bottom=0;right=0;points=[[0,0.5],[1,0.5]];portConstraint=eastwest;" vertex="1" parent="vDzjL6M5BgdxltO5o6aF-1">
          <mxGeometry y="30" width="180" height="30" as="geometry" />
        </mxCell>
        <mxCell id="vDzjL6M5BgdxltO5o6aF-3" value="PK,FK1" style="shape=partialRectangle;connectable=0;fillColor=none;top=0;left=0;bottom=0;right=0;fontStyle=1;overflow=hidden;" vertex="1" parent="vDzjL6M5BgdxltO5o6aF-2">
          <mxGeometry width="60" height="30" as="geometry" />
        </mxCell>
        <mxCell id="vDzjL6M5BgdxltO5o6aF-4" value="MacroId" style="shape=partialRectangle;connectable=0;fillColor=none;top=0;left=0;bottom=0;right=0;align=left;spacingLeft=6;fontStyle=5;overflow=hidden;" vertex="1" parent="vDzjL6M5BgdxltO5o6aF-2">
          <mxGeometry x="60" width="120" height="30" as="geometry" />
        </mxCell>
        <mxCell id="vDzjL6M5BgdxltO5o6aF-5" value="" style="shape=partialRectangle;collapsible=0;dropTarget=0;pointerEvents=0;fillColor=none;top=0;left=0;bottom=1;right=0;points=[[0,0.5],[1,0.5]];portConstraint=eastwest;" vertex="1" parent="vDzjL6M5BgdxltO5o6aF-1">
          <mxGeometry y="60" width="180" height="30" as="geometry" />
        </mxCell>
        <mxCell id="vDzjL6M5BgdxltO5o6aF-6" value="PK,FK2" style="shape=partialRectangle;connectable=0;fillColor=none;top=0;left=0;bottom=0;right=0;fontStyle=1;overflow=hidden;" vertex="1" parent="vDzjL6M5BgdxltO5o6aF-5">
          <mxGeometry width="60" height="30" as="geometry" />
        </mxCell>
        <mxCell id="vDzjL6M5BgdxltO5o6aF-7" value="BranchId" style="shape=partialRectangle;connectable=0;fillColor=none;top=0;left=0;bottom=0;right=0;align=left;spacingLeft=6;fontStyle=5;overflow=hidden;" vertex="1" parent="vDzjL6M5BgdxltO5o6aF-5">
          <mxGeometry x="60" width="120" height="30" as="geometry" />
        </mxCell>
        <mxCell id="vDzjL6M5BgdxltO5o6aF-11" value="" style="shape=partialRectangle;collapsible=0;dropTarget=0;pointerEvents=0;fillColor=none;top=0;left=0;bottom=0;right=0;points=[[0,0.5],[1,0.5]];portConstraint=eastwest;" vertex="1" parent="vDzjL6M5BgdxltO5o6aF-1">
          <mxGeometry y="90" width="180" height="30" as="geometry" />
        </mxCell>
        <mxCell id="vDzjL6M5BgdxltO5o6aF-12" value="" style="shape=partialRectangle;connectable=0;fillColor=none;top=0;left=0;bottom=0;right=0;editable=1;overflow=hidden;" vertex="1" parent="vDzjL6M5BgdxltO5o6aF-11">
          <mxGeometry width="60" height="30" as="geometry" />
        </mxCell>
        <mxCell id="vDzjL6M5BgdxltO5o6aF-13" value="" style="shape=partialRectangle;connectable=0;fillColor=none;top=0;left=0;bottom=0;right=0;align=left;spacingLeft=6;overflow=hidden;" vertex="1" parent="vDzjL6M5BgdxltO5o6aF-11">
          <mxGeometry x="60" width="120" height="30" as="geometry" />
        </mxCell>
        <mxCell id="vDzjL6M5BgdxltO5o6aF-14" value="Macro" style="shape=table;startSize=30;container=1;collapsible=1;childLayout=tableLayout;fixedRows=1;rowLines=0;fontStyle=1;align=center;resizeLast=1;" vertex="1" parent="1">
          <mxGeometry x="40" y="140" width="180" height="100" as="geometry" />
        </mxCell>
        <mxCell id="vDzjL6M5BgdxltO5o6aF-15" value="" style="shape=partialRectangle;collapsible=0;dropTarget=0;pointerEvents=0;fillColor=none;top=0;left=0;bottom=1;right=0;points=[[0,0.5],[1,0.5]];portConstraint=eastwest;" vertex="1" parent="vDzjL6M5BgdxltO5o6aF-14">
          <mxGeometry y="30" width="180" height="30" as="geometry" />
        </mxCell>
        <mxCell id="vDzjL6M5BgdxltO5o6aF-16" value="PK" style="shape=partialRectangle;connectable=0;fillColor=none;top=0;left=0;bottom=0;right=0;fontStyle=1;overflow=hidden;" vertex="1" parent="vDzjL6M5BgdxltO5o6aF-15">
          <mxGeometry width="30" height="30" as="geometry" />
        </mxCell>
        <mxCell id="vDzjL6M5BgdxltO5o6aF-17" value="MacroId" style="shape=partialRectangle;connectable=0;fillColor=none;top=0;left=0;bottom=0;right=0;align=left;spacingLeft=6;fontStyle=5;overflow=hidden;" vertex="1" parent="vDzjL6M5BgdxltO5o6aF-15">
          <mxGeometry x="30" width="150" height="30" as="geometry" />
        </mxCell>
        <mxCell id="vDzjL6M5BgdxltO5o6aF-24" value="" style="shape=partialRectangle;collapsible=0;dropTarget=0;pointerEvents=0;fillColor=none;top=0;left=0;bottom=0;right=0;points=[[0,0.5],[1,0.5]];portConstraint=eastwest;" vertex="1" parent="vDzjL6M5BgdxltO5o6aF-14">
          <mxGeometry y="60" width="180" height="30" as="geometry" />
        </mxCell>
        <mxCell id="vDzjL6M5BgdxltO5o6aF-25" value="" style="shape=partialRectangle;connectable=0;fillColor=none;top=0;left=0;bottom=0;right=0;editable=1;overflow=hidden;" vertex="1" parent="vDzjL6M5BgdxltO5o6aF-24">
          <mxGeometry width="30" height="30" as="geometry" />
        </mxCell>
        <mxCell id="vDzjL6M5BgdxltO5o6aF-26" value="" style="shape=partialRectangle;connectable=0;fillColor=none;top=0;left=0;bottom=0;right=0;align=left;spacingLeft=6;overflow=hidden;" vertex="1" parent="vDzjL6M5BgdxltO5o6aF-24">
          <mxGeometry x="30" width="150" height="30" as="geometry" />
        </mxCell>
        <mxCell id="vDzjL6M5BgdxltO5o6aF-28" style="edgeStyle=orthogonalEdgeStyle;rounded=0;orthogonalLoop=1;jettySize=auto;html=1;" edge="1" parent="1" source="vDzjL6M5BgdxltO5o6aF-2" target="vDzjL6M5BgdxltO5o6aF-15">
          <mxGeometry relative="1" as="geometry" />
        </mxCell>
        <mxCell id="vDzjL6M5BgdxltO5o6aF-29" value="Branch" style="shape=table;startSize=30;container=1;collapsible=1;childLayout=tableLayout;fixedRows=1;rowLines=0;fontStyle=1;align=center;resizeLast=1;" vertex="1" parent="1">
          <mxGeometry x="590" y="140" width="180" height="100" as="geometry" />
        </mxCell>
        <mxCell id="vDzjL6M5BgdxltO5o6aF-30" value="" style="shape=partialRectangle;collapsible=0;dropTarget=0;pointerEvents=0;fillColor=none;top=0;left=0;bottom=1;right=0;points=[[0,0.5],[1,0.5]];portConstraint=eastwest;" vertex="1" parent="vDzjL6M5BgdxltO5o6aF-29">
          <mxGeometry y="30" width="180" height="30" as="geometry" />
        </mxCell>
        <mxCell id="vDzjL6M5BgdxltO5o6aF-31" value="PK" style="shape=partialRectangle;connectable=0;fillColor=none;top=0;left=0;bottom=0;right=0;fontStyle=1;overflow=hidden;" vertex="1" parent="vDzjL6M5BgdxltO5o6aF-30">
          <mxGeometry width="30" height="30" as="geometry" />
        </mxCell>
        <mxCell id="vDzjL6M5BgdxltO5o6aF-32" value="BranchId" style="shape=partialRectangle;connectable=0;fillColor=none;top=0;left=0;bottom=0;right=0;align=left;spacingLeft=6;fontStyle=5;overflow=hidden;" vertex="1" parent="vDzjL6M5BgdxltO5o6aF-30">
          <mxGeometry x="30" width="150" height="30" as="geometry" />
        </mxCell>
        <mxCell id="vDzjL6M5BgdxltO5o6aF-33" value="" style="shape=partialRectangle;collapsible=0;dropTarget=0;pointerEvents=0;fillColor=none;top=0;left=0;bottom=0;right=0;points=[[0,0.5],[1,0.5]];portConstraint=eastwest;" vertex="1" parent="vDzjL6M5BgdxltO5o6aF-29">
          <mxGeometry y="60" width="180" height="30" as="geometry" />
        </mxCell>
        <mxCell id="vDzjL6M5BgdxltO5o6aF-34" value="" style="shape=partialRectangle;connectable=0;fillColor=none;top=0;left=0;bottom=0;right=0;editable=1;overflow=hidden;" vertex="1" parent="vDzjL6M5BgdxltO5o6aF-33">
          <mxGeometry width="30" height="30" as="geometry" />
        </mxCell>
        <mxCell id="vDzjL6M5BgdxltO5o6aF-35" value="" style="shape=partialRectangle;connectable=0;fillColor=none;top=0;left=0;bottom=0;right=0;align=left;spacingLeft=6;overflow=hidden;" vertex="1" parent="vDzjL6M5BgdxltO5o6aF-33">
          <mxGeometry x="30" width="150" height="30" as="geometry" />
        </mxCell>
        <mxCell id="vDzjL6M5BgdxltO5o6aF-36" style="edgeStyle=orthogonalEdgeStyle;rounded=0;orthogonalLoop=1;jettySize=auto;html=1;" edge="1" parent="1" source="vDzjL6M5BgdxltO5o6aF-5" target="vDzjL6M5BgdxltO5o6aF-30">
          <mxGeometry relative="1" as="geometry" />
        </mxCell>
        <mxCell id="vDzjL6M5BgdxltO5o6aF-37" value="SpecMacroBranch" style="shape=table;startSize=30;container=1;collapsible=1;childLayout=tableLayout;fixedRows=1;rowLines=0;fontStyle=1;align=center;resizeLast=1;" vertex="1" parent="1">
          <mxGeometry x="310" y="270" width="180" height="160" as="geometry" />
        </mxCell>
        <mxCell id="vDzjL6M5BgdxltO5o6aF-38" value="" style="shape=partialRectangle;collapsible=0;dropTarget=0;pointerEvents=0;fillColor=none;top=0;left=0;bottom=0;right=0;points=[[0,0.5],[1,0.5]];portConstraint=eastwest;" vertex="1" parent="vDzjL6M5BgdxltO5o6aF-37">
          <mxGeometry y="30" width="180" height="30" as="geometry" />
        </mxCell>
        <mxCell id="vDzjL6M5BgdxltO5o6aF-39" value="PK,FK1" style="shape=partialRectangle;connectable=0;fillColor=none;top=0;left=0;bottom=0;right=0;fontStyle=1;overflow=hidden;" vertex="1" parent="vDzjL6M5BgdxltO5o6aF-38">
          <mxGeometry width="60" height="30" as="geometry" />
        </mxCell>
        <mxCell id="vDzjL6M5BgdxltO5o6aF-40" value="MacroId" style="shape=partialRectangle;connectable=0;fillColor=none;top=0;left=0;bottom=0;right=0;align=left;spacingLeft=6;fontStyle=5;overflow=hidden;" vertex="1" parent="vDzjL6M5BgdxltO5o6aF-38">
          <mxGeometry x="60" width="120" height="30" as="geometry" />
        </mxCell>
        <mxCell id="vDzjL6M5BgdxltO5o6aF-41" value="" style="shape=partialRectangle;collapsible=0;dropTarget=0;pointerEvents=0;fillColor=none;top=0;left=0;bottom=1;right=0;points=[[0,0.5],[1,0.5]];portConstraint=eastwest;" vertex="1" parent="vDzjL6M5BgdxltO5o6aF-37">
          <mxGeometry y="60" width="180" height="30" as="geometry" />
        </mxCell>
        <mxCell id="vDzjL6M5BgdxltO5o6aF-42" value="PK,FK2" style="shape=partialRectangle;connectable=0;fillColor=none;top=0;left=0;bottom=0;right=0;fontStyle=1;overflow=hidden;" vertex="1" parent="vDzjL6M5BgdxltO5o6aF-41">
          <mxGeometry width="60" height="30" as="geometry" />
        </mxCell>
        <mxCell id="vDzjL6M5BgdxltO5o6aF-43" value="BranchId" style="shape=partialRectangle;connectable=0;fillColor=none;top=0;left=0;bottom=0;right=0;align=left;spacingLeft=6;fontStyle=5;overflow=hidden;" vertex="1" parent="vDzjL6M5BgdxltO5o6aF-41">
          <mxGeometry x="60" width="120" height="30" as="geometry" />
        </mxCell>
        <mxCell id="vDzjL6M5BgdxltO5o6aF-44" value="" style="shape=partialRectangle;collapsible=0;dropTarget=0;pointerEvents=0;fillColor=none;top=0;left=0;bottom=0;right=0;points=[[0,0.5],[1,0.5]];portConstraint=eastwest;" vertex="1" parent="vDzjL6M5BgdxltO5o6aF-37">
          <mxGeometry y="90" width="180" height="30" as="geometry" />
        </mxCell>
        <mxCell id="vDzjL6M5BgdxltO5o6aF-45" value="" style="shape=partialRectangle;connectable=0;fillColor=none;top=0;left=0;bottom=0;right=0;editable=1;overflow=hidden;" vertex="1" parent="vDzjL6M5BgdxltO5o6aF-44">
          <mxGeometry width="60" height="30" as="geometry" />
        </mxCell>
        <mxCell id="vDzjL6M5BgdxltO5o6aF-46" value="DataId" style="shape=partialRectangle;connectable=0;fillColor=none;top=0;left=0;bottom=0;right=0;align=left;spacingLeft=6;overflow=hidden;" vertex="1" parent="vDzjL6M5BgdxltO5o6aF-44">
          <mxGeometry x="60" width="120" height="30" as="geometry" />
        </mxCell>
        <mxCell id="vDzjL6M5BgdxltO5o6aF-49" value="" style="shape=partialRectangle;collapsible=0;dropTarget=0;pointerEvents=0;fillColor=none;top=0;left=0;bottom=0;right=0;points=[[0,0.5],[1,0.5]];portConstraint=eastwest;" vertex="1" parent="vDzjL6M5BgdxltO5o6aF-37">
          <mxGeometry y="120" width="180" height="30" as="geometry" />
        </mxCell>
        <mxCell id="vDzjL6M5BgdxltO5o6aF-50" value="" style="shape=partialRectangle;connectable=0;fillColor=none;top=0;left=0;bottom=0;right=0;editable=1;overflow=hidden;" vertex="1" parent="vDzjL6M5BgdxltO5o6aF-49">
          <mxGeometry width="60" height="30" as="geometry" />
        </mxCell>
        <mxCell id="vDzjL6M5BgdxltO5o6aF-51" value="Value" style="shape=partialRectangle;connectable=0;fillColor=none;top=0;left=0;bottom=0;right=0;align=left;spacingLeft=6;overflow=hidden;" vertex="1" parent="vDzjL6M5BgdxltO5o6aF-49">
          <mxGeometry x="60" width="120" height="30" as="geometry" />
        </mxCell>
        <mxCell id="vDzjL6M5BgdxltO5o6aF-47" style="edgeStyle=orthogonalEdgeStyle;rounded=0;orthogonalLoop=1;jettySize=auto;html=1;" edge="1" parent="1" source="vDzjL6M5BgdxltO5o6aF-38" target="vDzjL6M5BgdxltO5o6aF-15">
          <mxGeometry relative="1" as="geometry" />
        </mxCell>
        <mxCell id="vDzjL6M5BgdxltO5o6aF-48" style="edgeStyle=orthogonalEdgeStyle;rounded=0;orthogonalLoop=1;jettySize=auto;html=1;" edge="1" parent="1" source="vDzjL6M5BgdxltO5o6aF-41" target="vDzjL6M5BgdxltO5o6aF-30">
          <mxGeometry relative="1" as="geometry" />
        </mxCell>
      </root>
    </mxGraphModel>
  </diagram>
</mxfile>
